<?xml version="1.0" standalone="no"?>
<!DOCTYPE svg PUBLIC "-//W3C//DTD SVG 1.1//EN" "http://www.w3.org/Graphics/SVG/1.1/DTD/svg11.dtd" >
<svg xmlns="http://www.w3.org/2000/svg">
<metadata>Generated by IcoMoon</metadata>
<defs>
<font id="kontron-icons" horiz-adv-x="512">
<font-face units-per-em="512" ascent="480" descent="-32" />
<missing-glyph horiz-adv-x="512" />
<glyph unicode="&#x20;" d="" horiz-adv-x="256" />
<glyph unicode="&#x61;" d="M299.2 44.8c0-12.8-11.2-24-24-24h-36.8c-12.8 0-24 11.2-24 24s11.2 24 24 24h36.8c12.8 0 24-11.2 24-24zM315.2 124.8c0-12.8-11.2-24-24-24h-68.8c-12.8 0-24 11.2-24 24s11.2 24 24 24h68.8c12.8 0 24-9.6 24-24zM331.2 204.8c0-12.8-11.2-24-24-24h-100.8c-12.8 0-24 11.2-24 24s11.2 24 24 24h100.8c12.8 0 24-9.6 24-24zM139.2 260.8c-9.6 0-19.2 6.4-22.4 14.4-3.2 9.6-1.6 19.2 4.8 25.6l116.8 118.4c9.6 9.6 24 9.6 33.6 0l118.4-116.8c6.4-6.4 9.6-17.6 4.8-25.6-3.2-9.6-12.8-14.4-22.4-14.4l-233.6-1.6c0 0 0 0 0 0z" />
<glyph unicode="&#x62;" d="M145.6 313.6l-24 6.4-41.6 64 16 16 64-41.6 6.4-24 52.8-54.4-19.2-19.2zM316.8 193.6l12.8 12.8c0 0 0 0 0 0l89.6-89.6c16-16 16-41.6 0-57.6s-41.6-16-57.6 0l-80 78.4-11.2 11.2c0 0 0 0 0 0l12.8 12.8zM150.4 211.2c-16-3.2-32-9.6-44.8-22.4-24-24-30.4-57.6-19.2-86.4l48 48c8 8 19.2 8 25.6 0l20.8-20.8c8-8 8-19.2 0-27.2l-48-48c30.4-12.8 65.6-6.4 89.6 17.6 14.4 14.4 22.4 32 24 51.2 0 8 0 14.4-1.6 22.4l172.8 172.8c9.6 8 14.4 20.8 14.4 33.6s-4.8 25.6-14.4 33.6c-19.2 19.2-49.6 19.2-68.8 0 0 0-124.8-124.8-174.4-174.4-8 1.6-16 1.6-24 0zM366.4 371.2c9.6 9.6 25.6 9.6 35.2 0 9.6-9.6 9.6-25.6 0-35.2-9.6-9.6-25.6-9.6-35.2 0-9.6 9.6-9.6 25.6 0 35.2z" />
<glyph unicode="&#x63;" d="M256 27.2c-54.4 0-100.8 19.2-139.2 57.6-38.4 38.4-57.6 84.8-57.6 139.2 0 52.8 19.2 99.2 57.6 139.2 1.6 1.6 3.2 3.2 6.4 3.2 1.6 0 4.8 0 6.4-1.6l27.2-27.2c3.2-3.2 3.2-8 0-11.2-30.4-30.4-44.8-64-44.8-102.4 0-40 14.4-73.6 41.6-100.8 27.2-27.2 62.4-41.6 100.8-41.6 40 0 73.6 14.4 100.8 41.6 28.8 28.8 41.6 60.8 41.6 100.8 0 36.8-12.8 70.4-40 97.6l-48-48c1.6-1.6-1.6-3.2-4.8-1.6s-4.8 4.8-4.8 8v132.8c0 4.8 3.2 8 8 8h134.4c3.2 0 6.4-1.6 8-4.8s0-6.4-1.6-8l-48-48c36.8-38.4 56-84.8 56-136 0-54.4-19.2-100.8-57.6-139.2-41.6-38.4-88-57.6-142.4-57.6zM166.4 348.8c0-14.4-12.8-27.2-27.2-27.2-14.4 0-27.2 12.8-27.2 27.2 0 14.4 12.8 27.2 27.2 27.2 16 0 27.2-11.2 27.2-27.2z" />
<glyph unicode="&#x64;" d="M0 272h512v-96h-512v96z" />
<glyph unicode="&#x65;" d="M465.6 353.6c0-17.6-12.8-33.6-27.2-33.6h-363.2c-16 0-27.2 14.4-27.2 33.6 0 17.6 12.8 33.6 27.2 33.6h363.2c14.4 0 27.2-16 27.2-33.6zM465.6 224c0-17.6-12.8-33.6-27.2-33.6h-363.2c-16 0-27.2 14.4-27.2 33.6s12.8 33.6 27.2 33.6h363.2c14.4 0 27.2-16 27.2-33.6zM465.6 94.4c0-17.6-12.8-33.6-27.2-33.6h-363.2c-16 0-27.2 14.4-27.2 33.6 0 17.6 12.8 33.6 27.2 33.6h363.2c14.4 0 27.2-14.4 27.2-33.6z" />
<glyph unicode="&#x66;" d="M337.6 174.4h-169.6c-9.6 0-16 8-16 16 0 9.6 8 16 16 16h168c9.6 0 17.6-8 17.6-16 0-9.6-8-16-16-16zM337.6 115.2h-169.6c-9.6 0-16 8-16 16 0 9.6 8 17.6 16 17.6h168c9.6 0 17.6-8 17.6-17.6 0-8-8-16-16-16zM92.8 35.2c-3.2 3.2-4.8 8-4.8 12.8 0 1.6-1.6 3.2-1.6 6.4v305.6c0 33.6 27.2 60.8 60.8 60.8h139.2c4.8 0 9.6-1.6 14.4-6.4l118.4-118.4c3.2-3.2 6.4-9.6 6.4-14.4v-193.6c0-33.6-27.2-60.8-60.8-60.8h-257.6c-1.6 0-3.2 0-4.8 0l-9.6 8zM126.4 68.8h238.4c11.2 0 20.8 9.6 20.8 20.8v171.2h-121.6v118.4h-116.8c-11.2 0-20.8-9.6-20.8-20.8v-289.6z" />
<glyph unicode="&#x67;" d="M412.8 187.2c-19.2 35.2-8 78.4 27.2 99.2l-36.8 64c-11.2-6.4-22.4-9.6-36.8-9.6-40 0-72 32-72 72h-75.2c0-12.8-3.2-25.6-9.6-36.8-19.2-35.2-64-46.4-99.2-25.6l-36.8-64c11.2-6.4 19.2-14.4 27.2-27.2 19.2-35.2 8-78.4-27.2-99.2l36.8-64c11.2 6.4 22.4 9.6 36.8 9.6 40 0 72-32 72-72h75.2c0 12.8 3.2 24 9.6 36.8 19.2 35.2 64 46.4 99.2 25.6l36.8 64c-11.2 8-20.8 16-27.2 27.2zM256 147.2c-43.2 0-76.8 33.6-76.8 76.8s35.2 76.8 76.8 76.8c43.2 0 76.8-35.2 76.8-76.8 0-43.2-33.6-76.8-76.8-76.8z" />
<glyph unicode="&#x68;" d="M422.4 51.2h-332.8c-28.8 0-51.2 22.4-51.2 51.2v243.2c0 28.8 22.4 51.2 51.2 51.2h332.8c28.8 0 51.2-22.4 51.2-51.2v-243.2c0-28.8-22.4-51.2-51.2-51.2zM89.6 364.8c-9.6 0-19.2-8-19.2-19.2v-243.2c0-11.2 8-19.2 19.2-19.2h332.8c9.6 0 19.2 8 19.2 19.2v243.2c0 9.6-8 19.2-19.2 19.2h-332.8zM404.8 102.4h-297.6c-9.6 0-17.6 8-17.6 17.6v206.4c0 9.6 8 17.6 17.6 17.6h297.6c9.6 0 17.6-8 17.6-17.6v-206.4c0-9.6-8-17.6-17.6-17.6zM264 168c-4.8 0-8 1.6-11.2 4.8s-4.8 8-4.8 11.2c0 4.8 1.6 8 4.8 11.2l51.2 51.2-41.6 12.8 128 49.6-49.6-128-14.4 43.2-51.2-51.2c-3.2-3.2-6.4-4.8-11.2-4.8z" />
<glyph unicode="&#x69;" d="M355.2 38.4c0-11.2-11.2-19.2-24-19.2h-148.8c-12.8 0-24 8-24 19.2s11.2 19.2 24 19.2h148.8c12.8 0 24-8 24-19.2zM417.6 83.2h-323.2c-30.4 0-54.4 24-54.4 54.4v236.8c0 30.4 24 54.4 54.4 54.4h324.8c30.4 0 54.4-24 54.4-54.4v-236.8c-1.6-30.4-25.6-54.4-56-54.4zM94.4 388.8c-8 0-14.4-6.4-14.4-14.4v-236.8c0-8 6.4-14.4 14.4-14.4h324.8c8 0 14.4 6.4 14.4 14.4v236.8c0 8-6.4 14.4-14.4 14.4h-324.8zM337.6 38.4h-163.2v64h161.6v-64z" />
<glyph unicode="&#x6a;" d="M144 118.4c-48 0-88 40-88 88s40 88 88 88 88-40 88-88-40-88-88-88zM368 1.6c-48 0-88 40-88 88s40 88 88 88 88-40 88-88-40-88-88-88zM368 270.4c-48 0-88 40-88 88s40 88 88 88 88-40 88-88-40-88-88-88zM294.459 341.038l23.395-41.913-114.564-63.947-23.395 41.913 114.564 63.947zM284.8 100.8l-83.2 52.8 27.2 43.2 83.2-52.8z" />
<glyph unicode="&#x6b;" d="M203.2 273.6c-9.6 16-3.2 38.4 12.8 48l-17.6 32c-4.8-3.2-11.2-4.8-17.6-4.8-19.2 0-35.2 19.2-35.2 35.2h-35.2c0 0-1.6-12.8-4.8-17.6-9.6-16-30.4-22.4-48-12.8l-17.6-32c4.8-3.2 9.6-8 12.8-12.8 9.6-16 3.2-38.4-12.8-48l17.6-32c4.8 3.2 11.2 0 17.6 0 19.2 0 35.2-6.4 35.2-38.4h36.8c0 16 1.6 16 4.8 20.8 9.6 16 30.4 24 48 14.4l17.6 32c-6.4 6.4-11.2 11.2-14.4 16zM128 254.4c-20.8 0-36.8 16-36.8 36.8s16 36.8 36.8 36.8c20.8 0 36.8-16 36.8-36.8 0-19.2-16-36.8-36.8-36.8zM331.2 139.2c-9.6 16-3.2 38.4 12.8 48l-17.6 32c-4.8-3.2-11.2-1.6-17.6-1.6-19.2 0-35.2 6.4-35.2 38.4h-36.8c0-16-1.6-16-4.8-20.8-9.6-16-30.4-24-48-14.4l-17.6-32c4.8-3.2 9.6-8 12.8-12.8 9.6-16 3.2-38.4-12.8-48l17.6-32c4.8 3.2 11.2 4.8 17.6 4.8 19.2 0 35.2-19.2 35.2-35.2h36.8c0 0 1.6 12.8 4.8 17.6 9.6 16 30.4 22.4 48 12.8l17.6 32c-4.8 0-9.6 4.8-12.8 11.2zM256 118.4c-20.8 0-36.8 16-36.8 36.8s16 36.8 36.8 36.8c20.8 0 36.8-16 36.8-36.8 0-19.2-16-36.8-36.8-36.8zM459.2 273.6c-9.6 16-3.2 38.4 12.8 48l-17.6 32c-4.8-3.2-11.2-4.8-17.6-4.8-19.2 0-35.2 19.2-35.2 35.2h-36.8c0 0-1.6-12.8-4.8-17.6-9.6-16-30.4-22.4-48-12.8l-17.6-32c4.8-3.2 9.6-8 12.8-12.8 9.6-16 3.2-38.4-12.8-48l17.6-32c4.8 3.2 11.2 0 17.6 0 19.2 0 35.2-6.4 35.2-38.4h36.8c0 16 1.6 16 4.8 20.8 9.6 16 30.4 24 48 14.4l17.6 32c-4.8 6.4-9.6 11.2-12.8 16zM384 254.4c-20.8 0-36.8 16-36.8 36.8s16 36.8 36.8 36.8c20.8 0 36.8-16 36.8-36.8 0-19.2-16-36.8-36.8-36.8z" />
<glyph unicode="&#x6c;" d="M512 272h-208v208h-96v-208h-208v-96h208v-208h96v208h208z" />
<glyph unicode="&#x6d;" d="M382.4 336l-126.4-126.4-126.4 126.4h-113.6l240-240 240 240z" />
<glyph unicode="&#x6e;" d="M368 97.6l-126.4 126.4 126.4 126.4v113.6l-240-240 240-240z" />
<glyph unicode="&#x6f;" d="M137.6 350.4l123.2-123.2-129.6-129.6v-113.6l241.6 243.2-235.2 236.8z" />
<glyph unicode="&#x70;" d="M129.6 96l126.4 126.4 126.4-126.4h113.6l-240 240-240-240z" />
<glyph unicode="&#x71;" d="M496 400h-113.6l-126.4-126.4-126.4 126.4h-113.6l184-184-184-184h113.6l126.4 126.4 126.4-126.4h113.6l-184 184z" />
<glyph unicode="&#x72;" d="M408 408h-88c0-1.6 0-3.2 0-4.8 0-9.6-8-16-16-16h-94.4c-9.6 0-16 8-16 16 0 1.6 0 3.2 1.6 4.8h-91.2c-16 0-28.8-12.8-28.8-28.8v-312c0-16 12.8-28.8 28.8-28.8h304c16 0 28.8 12.8 28.8 28.8v312c0 16-12.8 28.8-28.8 28.8zM126.4 72c-14.4 0-25.6 11.2-25.6 25.6 0 14.4 11.2 25.6 25.6 25.6 14.4 0 25.6-11.2 25.6-25.6 0-14.4-11.2-25.6-25.6-25.6zM126.4 329.6c-14.4 0-25.6 11.2-25.6 25.6s11.2 25.6 25.6 25.6c14.4 0 25.6-11.2 25.6-25.6 0-14.4-11.2-25.6-25.6-25.6zM299.2 206.4c6.4-6.4 6.4-17.6 0-24s-17.6-6.4-24 0l-20.8 20.8-20.8-20.8c-6.4-6.4-17.6-6.4-24 0s-6.4 17.6 0 24l20.8 20.8-20.8 20.8c-6.4 6.4-6.4 17.6 0 24s17.6 6.4 24 0l20.8-20.8 20.8 20.8c6.4 6.4 17.6 6.4 24 0s6.4-17.6 0-24l-20.8-20.8 20.8-20.8zM385.6 72c-14.4 0-25.6 11.2-25.6 25.6 0 14.4 11.2 25.6 25.6 25.6 14.4 0 25.6-11.2 25.6-25.6 0-14.4-11.2-25.6-25.6-25.6zM385.6 329.6c-14.4 0-25.6 11.2-25.6 25.6s11.2 25.6 25.6 25.6c14.4 0 25.6-11.2 25.6-25.6 0-14.4-11.2-25.6-25.6-25.6z" />
<glyph unicode="&#x73;" d="M384 280h-256c-17.6 0-32-9.6-32-20.8v-68.8c0-11.2 14.4-20.8 32-20.8h256c17.6 0 32 9.6 32 20.8v68.8c0 11.2-14.4 20.8-32 20.8zM352 224h-80v24h80v-24z" />
<glyph unicode="&#x74;" d="M384 145.6h-256c-17.6 0-32-9.6-32-20.8v-68.8c0-11.2 14.4-20.8 32-20.8h256c17.6 0 32 9.6 32 20.8v68.8c0 11.2-14.4 20.8-32 20.8zM352 89.6h-80v24h80v-24zM384 278.4h-256c-17.6 0-32-9.6-32-20.8v-68.8c0-11.2 14.4-20.8 32-20.8h256c17.6 0 32 9.6 32 20.8v68.8c0 11.2-14.4 20.8-32 20.8zM352 222.4h-80v24h80v-24zM384 414.4h-256c-17.6 0-32-9.6-32-20.8v-68.8c0-11.2 14.4-20.8 32-20.8h256c17.6 0 32 9.6 32 20.8v68.8c0 11.2-14.4 20.8-32 20.8zM352 358.4h-80v24h80v-24z" />
<glyph unicode="&#x75;" d="M433.6 270.4l-83.2 83.2c-9.6 9.6-20.8 14.4-33.6 14.4h-120c-12.8 0-25.6-4.8-33.6-14.4l-83.2-83.2c-11.2-9.6-16-20.8-16-33.6v-124.8c0-27.2 20.8-48 48-48h288c27.2 0 48 20.8 48 48v124.8c0 12.8-4.8 24-14.4 33.6zM160 128h-32v112h32v-112zM272 192h-32v112h32v-112zM384 128h-32v112h32v-112z" />
</font>
</defs>
</svg>
