<?xml version="1.0" encoding="utf-8"?>
<!-- Generator: Adobe Illustrator 17.1.0, SVG Export Plug-In . SVG Version: 6.00 Build 0)  -->
<!DOCTYPE svg PUBLIC "-//W3C//DTD SVG 1.1//EN" "http://www.w3.org/Graphics/SVG/1.1/DTD/svg11.dtd">
<svg version="1.1" id="Layer_1" xmlns="http://www.w3.org/2000/svg" xmlns:xlink="http://www.w3.org/1999/xlink" x="0px" y="0px"
	 viewBox="0 0 32 32" enable-background="new 0 0 32 32" xml:space="preserve">
<g>
	<path fill="#1D1D1B" d="M22.2,27.6c0,0.7-0.7,1.2-1.5,1.2h-9.3c-0.8,0-1.5-0.5-1.5-1.2c0-0.7,0.7-1.2,1.5-1.2h9.3
		C21.5,26.4,22.2,26.9,22.2,27.6"/>
	<path fill="#1D1D1B" d="M26.1,24.8H5.9c-1.9,0-3.4-1.5-3.4-3.4V6.6c0-1.9,1.5-3.4,3.4-3.4h20.3c1.9,0,3.4,1.5,3.4,3.4v14.8
		C29.5,23.3,28,24.8,26.1,24.8z M5.9,5.7C5.4,5.7,5,6.1,5,6.6v14.8c0,0.5,0.4,0.9,0.9,0.9h20.3c0.5,0,0.9-0.4,0.9-0.9V6.6
		c0-0.5-0.4-0.9-0.9-0.9H5.9z"/>
	<path fill="#1D1D1B" d="M21.1,27.6H10.9v-4h10.1V27.6z"/>
</g>
</svg>
