<?xml version="1.0" encoding="utf-8"?>
<!-- Generator: Adobe Illustrator 15.0.2, SVG Export Plug-In . SVG Version: 6.00 Build 0)  -->
<!DOCTYPE svg PUBLIC "-//W3C//DTD SVG 1.1//EN" "http://www.w3.org/Graphics/SVG/1.1/DTD/svg11.dtd">
<svg version="1.1" id="Layer_1" xmlns="http://www.w3.org/2000/svg" xmlns:xlink="http://www.w3.org/1999/xlink" x="0px" y="0px"
	 width="32px" height="32px" viewBox="0 0 32 32" enable-background="new 0 0 32 32" xml:space="preserve">
<g>
	<path fill="#1D1D1B" d="M-224,4.782c-6.171,0-11.173,5.002-11.173,11.172c0,6.171,5.002,11.173,11.173,11.173
		c6.17,0,11.172-5.002,11.172-11.173C-212.828,9.784-217.83,4.782-224,4.782"/>
	<path fill="#D9D9D9" d="M-224,0.537c-8.54,0-15.463,6.923-15.463,15.463c0,8.539,6.923,15.463,15.463,15.463
		s15.464-6.924,15.464-15.463C-208.537,7.46-215.46,0.537-224,0.537 M-224,29.143c-7.259,0-13.143-5.883-13.143-13.143
		c0-7.259,5.884-13.144,13.143-13.144c7.26,0,13.144,5.885,13.144,13.144C-210.857,23.26-216.741,29.143-224,29.143"/>
	<path fill="#FFFFFF" d="M-218.134,17.329c-0.747-1.295-0.297-2.953,1.004-3.707l-1.4-2.425c-0.4,0.235-0.865,0.369-1.361,0.369
		c-1.496,0-2.708-1.22-2.708-2.726h-2.798c0.003,0.465-0.112,0.937-0.362,1.367c-0.747,1.293-2.408,1.733-3.711,0.983l-1.4,2.425
		c0.403,0.229,0.752,0.564,0.999,0.993c0.747,1.293,0.3,2.947-0.997,3.703l1.4,2.426c0.398-0.234,0.861-0.365,1.355-0.365
		c1.491,0,2.7,1.211,2.707,2.709h2.799c-0.001-0.459,0.116-0.924,0.362-1.352c0.745-1.291,2.402-1.732,3.704-0.986l1.4-2.426
		C-217.54,18.09-217.887,17.756-218.134,17.329 M-224,18.846c-1.592,0-2.883-1.291-2.883-2.884c0-1.592,1.291-2.883,2.883-2.883
		c1.592,0,2.883,1.291,2.883,2.883C-221.117,17.555-222.408,18.846-224,18.846"/>
</g>
<g>
	<path fill="#D9D9D9" d="M-176,0.537c-8.54,0-15.463,6.923-15.463,15.463c0,8.539,6.923,15.463,15.463,15.463
		s15.463-6.924,15.463-15.463C-160.537,7.46-167.46,0.537-176,0.537 M-176,29.143c-7.259,0-13.143-5.883-13.143-13.143
		c0-7.259,5.884-13.144,13.143-13.144c7.259,0,13.143,5.885,13.143,13.144C-162.857,23.26-168.741,29.143-176,29.143"/>
	<path fill="#1D1D1B" d="M-178.401,17.635c-0.529-0.852-0.86-1.95-0.86-3.165c0-2.683,1.559-4.858,3.483-4.858
		s3.483,2.175,3.483,4.858c0,1.237-0.342,2.354-0.888,3.212c2.988,0.836,5.196,3.023,5.576,5.676
		c1.725-1.967,2.779-4.537,2.779-7.357c0-6.17-5.001-11.172-11.171-11.172c-6.17,0-11.172,5.002-11.172,11.172
		c0,2.947,1.149,5.619,3.014,7.615C-183.884,20.801-181.565,18.461-178.401,17.635"/>
	<path fill="#FFFFFF" d="M-176,27.172c3.349,0,6.345-1.48,8.393-3.814c-0.381-2.652-2.588-4.84-5.576-5.676
		c0.546-0.858,0.888-1.974,0.888-3.211c0-2.684-1.56-4.859-3.484-4.859c-1.923,0-3.483,2.175-3.483,4.859
		c0,1.215,0.331,2.312,0.86,3.164c-3.164,0.826-5.482,3.166-5.756,5.98C-182.119,25.799-179.223,27.172-176,27.172"/>
</g>
<g>
	<path fill="#D9D9D9" d="M-128,0.499c-8.54,0-15.463,6.923-15.463,15.462c0,8.54,6.923,15.463,15.463,15.463
		c8.54,0,15.463-6.923,15.463-15.463C-112.537,7.421-119.46,0.499-128,0.499 M-128,29.104c-7.259,0-13.143-5.884-13.143-13.144
		c0-7.258,5.884-13.144,13.143-13.144c7.259,0,13.143,5.885,13.143,13.144C-114.857,23.221-120.741,29.104-128,29.104"/>
	<path fill="#89A7D7" d="M-128,4.79c-6.17,0-11.172,5.002-11.172,11.171c0,6.17,5.002,11.173,11.172,11.173
		c6.17,0,11.172-5.003,11.172-11.173C-116.828,9.792-121.83,4.79-128,4.79"/>
	<path fill="#FFFFFF" d="M-123.947,20.262c-0.378,0.378-0.992,0.378-1.372,0l-3.613-3.616c-0.015-0.015-0.02-0.034-0.033-0.049
		c-0.072-0.08-0.135-0.166-0.178-0.267c-0.047-0.117-0.073-0.245-0.073-0.371V6.896c0-0.536,0.434-0.969,0.969-0.969
		c0.534,0,0.97,0.433,0.97,0.969v8.663l3.33,3.33C-123.569,19.268-123.569,19.883-123.947,20.262"/>
</g>
<g>
	<path fill="#D9D9D9" d="M-80.001,0.537C-88.54,0.537-95.463,7.46-95.463,16c0,8.539,6.923,15.463,15.462,15.463
		c8.541,0,15.463-6.924,15.463-15.463C-64.538,7.46-71.46,0.537-80.001,0.537 M-80.001,29.143c-7.258,0-13.143-5.883-13.143-13.143
		c0-7.259,5.885-13.144,13.143-13.144c7.26,0,13.144,5.885,13.144,13.144C-66.857,23.26-72.741,29.143-80.001,29.143"/>
	<path fill="#39A935" d="M-80.001,4.828c-6.17,0-11.171,5.002-11.171,11.172s5.001,11.172,11.171,11.172S-68.829,22.17-68.829,16
		S-73.831,4.828-80.001,4.828"/>
	<path fill="#F5F5F5" d="M-83.853,18.551l2.811,2.582l5.684-9.361c0.506-0.81-0.984-1.967-1.701-0.609l-4.211,7.817
		c0,0-1.695-1.543-1.721-1.568C-83.763,16.64-84.638,17.766-83.853,18.551"/>
	<path fill="none" stroke="#F5F5F5" stroke-width="0.5" stroke-linecap="round" stroke-linejoin="round" stroke-miterlimit="10" d="
		M-83.853,18.627l2.811,2.582l5.684-9.36c0.506-0.81-0.984-1.967-1.701-0.609l-4.211,7.817c0,0-1.695-1.543-1.721-1.568
		C-83.763,16.716-84.638,17.842-83.853,18.627z"/>
</g>
<g>
	<path fill="#D9D9D9" d="M-32,0.538c-8.539,0-15.463,6.923-15.463,15.463c0,8.54,6.924,15.462,15.463,15.462
		c8.541,0,15.463-6.923,15.463-15.462C-16.537,7.46-23.459,0.538-32,0.538 M-32,29.144c-7.258,0-13.143-5.884-13.143-13.143
		c0-7.259,5.885-13.144,13.143-13.144c7.26,0,13.144,5.885,13.144,13.144C-18.856,23.26-24.74,29.144-32,29.144"/>
	<path fill="#E6A52F" d="M-32,4.829c-6.17,0-11.172,5.002-11.172,11.172c0,6.169,5.002,11.172,11.172,11.172
		S-20.828,22.17-20.828,16C-20.828,9.831-25.83,4.829-32,4.829"/>
	<path fill="#FFFFFF" d="M-23.129,19.867l-8.056-13.513c-0.198-0.337-0.478-0.536-0.833-0.536c-0.357,0-0.635,0.199-0.834,0.536
		l-8.056,13.513c-0.179,0.317-0.259,0.555-0.259,0.833c0,0.655,0.517,0.913,1.291,0.913h15.715c0.773,0,1.289-0.258,1.289-0.913
		C-22.871,20.422-22.95,20.185-23.129,19.867"/>
	<path fill="#0061AC" d="M-31.936,20.089c-0.753,0-1.355-0.604-1.355-1.356s0.603-1.354,1.355-1.354s1.355,0.602,1.355,1.354
		S-31.183,20.089-31.936,20.089"/>
	<path fill="#0061AC" d="M-31.031,14.903c-0.051,0.502-0.377,0.979-0.904,0.979s-0.854-0.477-0.904-0.979l-0.451-4.544
		c-0.076-0.753,0.602-1.506,1.355-1.506c0.752,0,1.431,0.753,1.355,1.506L-31.031,14.903z"/>
</g>
<g>
	<path fill="#D9D9D9" d="M16,0.538c-8.541,0-15.463,6.923-15.463,15.463c0,8.54,6.922,15.461,15.463,15.461
		c8.539,0,15.463-6.922,15.463-15.461C31.463,7.461,24.539,0.538,16,0.538 M16,29.145c-7.26,0-13.144-5.885-13.144-13.143
		C2.856,8.742,8.74,2.857,16,2.857c7.258,0,13.143,5.885,13.143,13.145C29.143,23.26,23.258,29.145,16,29.145"/>
	<path fill="#E84E1B" d="M16,4.829c-6.17,0-11.172,5.002-11.172,11.172C4.828,22.17,9.83,27.174,16,27.174
		s11.172-5.004,11.172-11.172C27.172,9.831,22.17,4.829,16,4.829"/>
	<path fill="#FFFFFF" d="M23.719,16.027c0,0.966-0.783,1.75-1.75,1.75h-12c-0.967,0-1.75-0.785-1.75-1.75
		c0-0.967,0.783-1.75,1.75-1.75h12C22.936,14.277,23.719,15.06,23.719,16.027"/>
</g>
</svg>
