<?xml version="1.0" encoding="utf-8"?>
<!-- Generator: Adobe Illustrator 15.0.2, SVG Export Plug-In  -->
<!DOCTYPE svg PUBLIC "-//W3C//DTD SVG 1.1//EN" "http://www.w3.org/Graphics/SVG/1.1/DTD/svg11.dtd" [
	<!ENTITY ns_flows "http://ns.adobe.com/Flows/1.0/">
]>
<svg version="1.1"
	 xmlns="http://www.w3.org/2000/svg" xmlns:xlink="http://www.w3.org/1999/xlink" xmlns:a="http://ns.adobe.com/AdobeSVGViewerExtensions/3.0/"
	 x="0px" y="0px" width="32px" height="32px" viewBox="-0.537 -0.537 32 32"
	 overflow="visible" enable-background="new -0.537 -0.537 32 32" xml:space="preserve">
<defs>
</defs>
<path fill="#D9D9D9" d="M15.462,0C6.923,0,0,6.924,0,15.463c0,8.54,6.923,15.463,15.462,15.463c8.54,0,15.464-6.923,15.464-15.463
	C30.926,6.924,24.002,0,15.462,0 M15.462,28.606c-7.258,0-13.143-5.884-13.143-13.144c0-7.258,5.885-13.144,13.143-13.144
	c7.26,0,13.144,5.886,13.144,13.144C28.605,22.723,22.722,28.606,15.462,28.606"/>
<path fill="#1D1D1B" d="M15.462,4.291c-6.169,0-11.171,5.002-11.171,11.172c0,6.171,5.002,11.173,11.171,11.173
	c6.171,0,11.173-5.002,11.173-11.173C26.635,9.293,21.633,4.291,15.462,4.291"/>
<path fill="#FFFFFF" d="M14.312,18.136l-0.042-0.383c-0.148-1.253,0.339-2.378,1.125-3.609c0.615-0.912,0.913-1.55,0.913-2.356
	c0-0.785-0.531-1.316-1.401-1.316c-0.467,0-1.202,0.121-1.412,0.962l-2.395-0.546c0.546-2.941,3.424-2.814,4.464-2.814
	c2.803,0,3.589,1.848,3.589,3.27c0,1.465-0.828,2.654-1.571,3.736c-0.573,0.87-0.935,1.613-0.912,2.611v0.446H14.312z
	 M13.931,21.022c0-1.04,0.743-1.72,1.571-1.741c0.913,0,1.592,0.701,1.592,1.741c0,0.977-0.594,1.698-1.571,1.698
	C14.609,22.721,13.931,21.999,13.931,21.022"/>
</svg>
