<?xml version="1.0" encoding="utf-8"?>
<!-- Generator: Adobe Illustrator 15.0.0, SVG Export Plug-In . SVG Version: 6.00 Build 0)  -->
<!DOCTYPE svg PUBLIC "-//W3C//DTD SVG 1.1//EN" "http://www.w3.org/Graphics/SVG/1.1/DTD/svg11.dtd">
<svg version="1.1" id="Layer_1" xmlns="http://www.w3.org/2000/svg" xmlns:xlink="http://www.w3.org/1999/xlink" x="0px" y="0px"
	 width="23px" height="18.23px" viewBox="0 0 23 18.23" enable-background="new 0 0 23 18.23" xml:space="preserve">
<g>
	<path fill="#1D1D1B" d="M20.294,18.23H2.706C1.184,18.23,0,17.046,0,15.524V2.671c0-1.522,1.184-2.706,2.706-2.706h17.588
		C21.816-0.035,23,1.149,23,2.671v12.853C23,17.046,21.816,18.23,20.294,18.23z M2.706,1.656c-0.508,0-1.015,0.423-1.015,1.015
		v12.853c0,0.592,0.423,1.015,1.015,1.015h17.588c0.508,0,1.015-0.422,1.015-1.015V2.671c0-0.507-0.423-1.015-1.015-1.015H2.706z"/>
	<path fill="#1D1D1B" d="M20.86,17.608H2.14c-0.604,0-1.107-0.56-1.107-1.233V1.908c0-0.672,0.503-1.233,1.107-1.233h18.72
		c0.604,0,1.107,0.561,1.107,1.233v14.467C21.967,17.048,21.464,17.608,20.86,17.608z"/>
	<g>
		<path fill="#FFFFFF" d="M12.903,8.657H8.328c-0.259,0-0.432-0.246-0.432-0.491c0-0.295,0.216-0.491,0.432-0.491h4.532
			c0.258,0,0.475,0.246,0.475,0.491C13.335,8.46,13.118,8.657,12.903,8.657z"/>
		<g>
			<path fill="#FFFFFF" d="M8.069,5.624L3.328,3.432c-0.269-0.124-0.344-0.43-0.241-0.654c0.125-0.269,0.431-0.344,0.655-0.241
				l4.696,2.171c0.269,0.124,0.39,0.451,0.286,0.675C8.599,5.652,8.292,5.727,8.069,5.624z"/>
			<path fill="#FFFFFF" d="M3.079,7.581C2.976,7.357,3.096,7.03,3.364,6.906l4.697-2.171c0.224-0.103,0.53-0.028,0.654,0.241
				c0.104,0.224,0.028,0.53-0.241,0.654L3.733,7.821C3.509,7.925,3.203,7.85,3.079,7.581z"/>
		</g>
	</g>
</g>
</svg>
