<?xml version="1.0" encoding="utf-8"?>
<!-- Generator: Adobe Illustrator 15.0.2, SVG Export Plug-In  -->
<!DOCTYPE svg PUBLIC "-//W3C//DTD SVG 1.1//EN" "http://www.w3.org/Graphics/SVG/1.1/DTD/svg11.dtd" [
	<!ENTITY ns_flows "http://ns.adobe.com/Flows/1.0/">
]>
<svg version="1.1"
	 xmlns="http://www.w3.org/2000/svg" xmlns:xlink="http://www.w3.org/1999/xlink" xmlns:a="http://ns.adobe.com/AdobeSVGViewerExtensions/3.0/"
	 x="0px" y="0px" width="32px" height="32px" viewBox="-0.537 -0.537 32 32"
	 overflow="visible" enable-background="new -0.537 -0.537 32 32" xml:space="preserve">
<defs>
</defs>
<path fill="#D9D9D9" d="M15.463,0C6.923,0,0,6.923,0,15.463c0,8.539,6.923,15.463,15.463,15.463s15.463-6.924,15.463-15.463
	C30.926,6.923,24.003,0,15.463,0 M15.463,28.605c-7.259,0-13.143-5.883-13.143-13.143c0-7.259,5.884-13.144,13.143-13.144
	c7.259,0,13.143,5.885,13.143,13.144C28.606,22.723,22.722,28.605,15.463,28.605"/>
<path fill="#1D1D1B" d="M13.062,17.098c-0.529-0.852-0.86-1.95-0.86-3.165c0-2.683,1.559-4.858,3.483-4.858s3.483,2.175,3.483,4.858
	c0,1.237-0.342,2.354-0.888,3.212c2.988,0.836,5.196,3.023,5.576,5.676c1.725-1.967,2.779-4.537,2.779-7.357
	c0-6.17-5.001-11.172-11.171-11.172c-6.17,0-11.172,5.002-11.172,11.172c0,2.947,1.149,5.619,3.014,7.615
	C7.579,20.264,9.897,17.924,13.062,17.098"/>
<path fill="#FFFFFF" d="M15.463,26.635c3.349,0,6.345-1.48,8.393-3.814c-0.381-2.652-2.588-4.84-5.576-5.676
	c0.546-0.858,0.888-1.974,0.888-3.211c0-2.684-1.56-4.859-3.484-4.859c-1.923,0-3.483,2.175-3.483,4.859
	c0,1.215,0.331,2.312,0.86,3.164c-3.164,0.826-5.482,3.166-5.756,5.98C9.344,25.262,12.24,26.635,15.463,26.635"/>
</svg>
