<?xml version="1.0" encoding="utf-8"?>
<!-- Generator: Adobe Illustrator 15.0.2, SVG Export Plug-In  -->
<!DOCTYPE svg PUBLIC "-//W3C//DTD SVG 1.1//EN" "http://www.w3.org/Graphics/SVG/1.1/DTD/svg11.dtd" [
	<!ENTITY ns_flows "http://ns.adobe.com/Flows/1.0/">
]>
<svg version="1.1"
	 xmlns="http://www.w3.org/2000/svg" xmlns:xlink="http://www.w3.org/1999/xlink" xmlns:a="http://ns.adobe.com/AdobeSVGViewerExtensions/3.0/"
	 x="0px" y="0px" width="32px" height="32px" viewBox="-0.537 -0.538 32 32"
	 overflow="visible" enable-background="new -0.537 -0.538 32 32" xml:space="preserve">
<defs>
</defs>
<path fill="#D9D9D9" d="M15.463,0C6.922,0,0,6.923,0,15.463c0,8.54,6.922,15.461,15.463,15.461c8.539,0,15.463-6.922,15.463-15.461
	C30.926,6.923,24.002,0,15.463,0 M15.463,28.606c-7.26,0-13.144-5.885-13.144-13.143c0-7.259,5.884-13.145,13.144-13.145
	c7.258,0,13.143,5.885,13.143,13.145C28.605,22.722,22.721,28.606,15.463,28.606"/>
<path fill="#E84E1B" d="M15.463,4.291c-6.17,0-11.172,5.002-11.172,11.172c0,6.168,5.002,11.172,11.172,11.172
	s11.172-5.004,11.172-11.172C26.635,9.293,21.633,4.291,15.463,4.291"/>
<path fill="#FFFFFF" d="M23.182,15.489c0,0.966-0.783,1.75-1.75,1.75h-12c-0.967,0-1.75-0.785-1.75-1.75
	c0-0.967,0.783-1.75,1.75-1.75h12C22.398,13.739,23.182,14.522,23.182,15.489"/>
</svg>
