<?xml version="1.0" encoding="utf-8"?>
<!-- Generator: Adobe Illustrator 15.0.2, SVG Export Plug-In  -->
<!DOCTYPE svg PUBLIC "-//W3C//DTD SVG 1.1//EN" "http://www.w3.org/Graphics/SVG/1.1/DTD/svg11.dtd" [
	<!ENTITY ns_flows "http://ns.adobe.com/Flows/1.0/">
]>
<svg version="1.1"
	 xmlns="http://www.w3.org/2000/svg" xmlns:xlink="http://www.w3.org/1999/xlink" xmlns:a="http://ns.adobe.com/AdobeSVGViewerExtensions/3.0/"
	 x="0px" y="0px" width="32px" height="32px" viewBox="-0.537 -0.538 32 32"
	 overflow="visible" enable-background="new -0.537 -0.538 32 32" xml:space="preserve">
<defs>
</defs>
<path fill="#D9D9D9" d="M15.463,0C6.924,0,0,6.923,0,15.463c0,8.54,6.924,15.462,15.463,15.462c8.541,0,15.463-6.923,15.463-15.462
	C30.926,6.923,24.004,0,15.463,0 M15.463,28.606c-7.258,0-13.143-5.884-13.143-13.143c0-7.259,5.885-13.144,13.143-13.144
	c7.26,0,13.144,5.885,13.144,13.144C28.606,22.722,22.723,28.606,15.463,28.606"/>
<path fill="#E6A52F" d="M15.463,4.291c-6.17,0-11.172,5.002-11.172,11.172c0,6.169,5.002,11.172,11.172,11.172
	s11.172-5.003,11.172-11.172C26.635,9.293,21.633,4.291,15.463,4.291"/>
<path fill="#FFFFFF" d="M24.334,19.33L16.278,5.816C16.08,5.479,15.801,5.28,15.445,5.28c-0.357,0-0.635,0.199-0.834,0.536
	L6.556,19.33c-0.179,0.317-0.259,0.555-0.259,0.833c0,0.655,0.517,0.913,1.291,0.913h15.715c0.773,0,1.289-0.258,1.289-0.913
	C24.592,19.884,24.513,19.647,24.334,19.33"/>
<path fill="#0061AC" d="M15.527,19.551c-0.753,0-1.355-0.604-1.355-1.356s0.603-1.354,1.355-1.354s1.355,0.602,1.355,1.354
	S16.28,19.551,15.527,19.551"/>
<path fill="#0061AC" d="M16.432,14.366c-0.051,0.502-0.377,0.979-0.904,0.979s-0.854-0.477-0.904-0.979l-0.451-4.544
	c-0.076-0.753,0.602-1.506,1.355-1.506c0.752,0,1.431,0.753,1.355,1.506L16.432,14.366z"/>
</svg>
