<?xml version="1.0" encoding="utf-8"?>
<!-- Generator: Adobe Illustrator 15.0.2, SVG Export Plug-In  -->
<!DOCTYPE svg PUBLIC "-//W3C//DTD SVG 1.1//EN" "http://www.w3.org/Graphics/SVG/1.1/DTD/svg11.dtd" [
	<!ENTITY ns_flows "http://ns.adobe.com/Flows/1.0/">
]>
<svg version="1.1"
	 xmlns="http://www.w3.org/2000/svg" xmlns:xlink="http://www.w3.org/1999/xlink" xmlns:a="http://ns.adobe.com/AdobeSVGViewerExtensions/3.0/"
	 x="0px" y="0px" width="32px" height="32px" viewBox="-0.537 -0.499 32 32"
	 overflow="visible" enable-background="new -0.537 -0.499 32 32" xml:space="preserve">
<defs>
</defs>
<path fill="#D9D9D9" d="M15.463,0C6.923,0,0,6.923,0,15.462c0,8.54,6.923,15.463,15.463,15.463c8.54,0,15.463-6.923,15.463-15.463
	C30.926,6.923,24.003,0,15.463,0 M15.463,28.606c-7.259,0-13.143-5.884-13.143-13.144c0-7.258,5.884-13.144,13.143-13.144
	c7.259,0,13.143,5.885,13.143,13.144C28.606,22.722,22.722,28.606,15.463,28.606"/>
<path fill="#89A7D7" d="M15.463,4.291c-6.17,0-11.172,5.002-11.172,11.171c0,6.17,5.002,11.173,11.172,11.173
	c6.17,0,11.172-5.003,11.172-11.173C26.635,9.293,21.633,4.291,15.463,4.291"/>
<path fill="#FFFFFF" d="M19.516,19.763c-0.378,0.378-0.992,0.378-1.372,0l-3.613-3.616c-0.015-0.015-0.02-0.034-0.033-0.049
	c-0.072-0.08-0.135-0.166-0.178-0.267c-0.047-0.117-0.073-0.245-0.073-0.371V6.397c0-0.536,0.434-0.969,0.969-0.969
	c0.534,0,0.97,0.433,0.97,0.969v8.663l3.33,3.33C19.894,18.769,19.894,19.384,19.516,19.763"/>
</svg>
